<svg width="24" height="15" viewBox="0 0 24 15" fill="none" xmlns="http://www.w3.org/2000/svg">
<path d="M1.49412 0.0234375C2.3086 0.0234375 3.5497 0.0234375 4.24782 0.0234375C4.59689 0.0234375 4.86838 0.256145 4.98473 0.566421C5.33379 1.57482 6.10948 3.78554 7.00153 5.29813C8.20385 7.27615 8.97954 8.01305 9.48374 7.93548C9.98794 7.81913 9.8328 6.50045 9.8328 5.45327C9.8328 4.40609 9.94915 2.622 9.44495 1.80753L8.66926 0.682775C8.47534 0.411283 8.66926 0.0622222 8.97954 0.0622222H13.401C13.8276 0.0622222 14.1767 0.411283 14.1767 0.837913V6.46167C14.1767 6.46167 14.3706 7.47007 15.4566 6.42289C16.5425 5.3757 17.7061 3.43648 18.6757 1.45847L19.0635 0.527637C19.1799 0.256145 19.4514 0.0622222 19.7616 0.0622222H22.6317C23.1747 0.0622222 23.5625 0.605206 23.3686 1.1094L23.0583 1.92388C23.0583 1.92388 22.0111 4.01824 20.9252 5.49206C19.8392 7.00465 19.6065 7.35371 19.7616 7.74156C19.9168 8.12941 22.7093 10.728 23.4074 11.9691C23.6013 12.3181 23.7564 12.6284 23.9116 12.8999C24.1831 13.4041 23.7952 14.0634 23.2135 14.0634H19.9556C19.6841 14.0634 19.4126 13.9083 19.2962 13.6756L18.9859 13.1714C18.9859 13.1714 17.0079 10.8443 15.8056 10.1074C14.5645 9.4093 14.6033 10.4177 14.6033 10.4177V12.4733C14.6033 13.3265 13.9052 14.0247 13.0519 14.0247H12.2762C12.2762 14.0247 8.00992 14.0247 4.59689 8.94388C1.92075 4.98786 1.02871 2.42808 0.718433 0.954266C0.640864 0.488852 0.989924 0.0234375 1.49412 0.0234375Z" fill="black"/>
</svg>
