<svg width="18" height="19" viewBox="0 0 18 19" fill="none" xmlns="http://www.w3.org/2000/svg">
<path fill-rule="evenodd" clip-rule="evenodd" d="M13.1237 11.2952C12.8997 11.1831 11.7987 10.6414 11.5934 10.5666C11.3882 10.4919 11.2389 10.4546 11.0896 10.6787C10.9403 10.9029 10.5112 11.4073 10.3805 11.5568C10.2499 11.7062 10.1193 11.725 9.89536 11.6128C9.67141 11.5008 8.94983 11.2643 8.09448 10.5013C7.4288 9.90751 6.97932 9.17419 6.84872 8.95C6.71808 8.72581 6.83476 8.60462 6.94688 8.49297C7.04767 8.39263 7.17086 8.23141 7.28279 8.10062C7.3948 7.96991 7.4321 7.87643 7.50674 7.72705C7.58137 7.57757 7.54407 7.44682 7.48804 7.33474C7.4321 7.22267 6.98425 6.12038 6.79764 5.67193C6.61584 5.23532 6.43124 5.29445 6.29378 5.28753C6.16331 5.28106 6.01383 5.27969 5.86459 5.27969C5.71532 5.27969 5.47267 5.33573 5.26739 5.55985C5.06215 5.78404 4.48365 6.32587 4.48365 7.42805C4.48365 8.53037 5.28606 9.59515 5.39803 9.74464C5.51 9.89412 6.97711 12.156 9.22359 13.126C9.75783 13.3568 10.175 13.4945 10.5002 13.5977C11.0366 13.7682 11.5248 13.7442 11.9107 13.6865C12.3409 13.6222 13.2356 13.1448 13.4222 12.6217C13.6088 12.0985 13.6088 11.6502 13.5528 11.5568C13.4969 11.4634 13.3476 11.4073 13.1237 11.2952ZM9.03765 16.8743H9.03463C7.69792 16.8737 6.38691 16.5146 5.2432 15.8359L4.97116 15.6745L2.15184 16.4141L2.90436 13.6652L2.72728 13.3833C1.98158 12.1973 1.58773 10.8266 1.58832 9.41902C1.58998 5.31189 4.93168 1.97046 9.04061 1.97046C11.0303 1.97113 12.9006 2.747 14.307 4.15504C15.7135 5.56305 16.4875 7.43462 16.4868 9.42503C16.4851 13.5325 13.1434 16.8743 9.03765 16.8743ZM15.3774 3.08513C13.6853 1.39109 11.4351 0.457726 9.03755 0.456741C4.0976 0.456741 0.0770977 4.477 0.0750937 9.41846C0.0744609 10.9981 0.487125 12.5398 1.27146 13.899L0 18.5433L4.75105 17.297C6.06013 18.011 7.53398 18.3873 9.034 18.3878H9.03769C13.9771 18.3878 17.998 14.3672 18 9.42563C18.0009 7.03089 17.0695 4.77917 15.3774 3.08513Z" fill="black"/>
</svg>
